<mxfile host="app.diagrams.net" agent="Mozilla/5.0 (Windows NT 10.0; Win64; x64) AppleWebKit/537.36 (KHTML, like Gecko) Chrome/131.0.0.0 Safari/537.36 Edg/131.0.0.0" version="24.8.9">
  <diagram name="Page-1" id="vm8XRe136-EEdmk4K6hJ">
    <mxGraphModel dx="2516" dy="791" grid="1" gridSize="10" guides="1" tooltips="1" connect="1" arrows="1" fold="1" page="1" pageScale="1" pageWidth="850" pageHeight="1100" math="0" shadow="0">
      <root>
        <mxCell id="0" />
        <mxCell id="1" parent="0" />
        <mxCell id="9vjaQ01O8-c-7YoNoBC--1" value="User" style="swimlane;fontStyle=1;align=center;verticalAlign=top;childLayout=stackLayout;horizontal=1;startSize=26;horizontalStack=0;resizeParent=1;resizeParentMax=0;resizeLast=0;collapsible=1;marginBottom=0;whiteSpace=wrap;html=1;" parent="1" vertex="1">
          <mxGeometry x="-50" y="60" width="430" height="440" as="geometry" />
        </mxCell>
        <mxCell id="9vjaQ01O8-c-7YoNoBC--2" value="&lt;div&gt;&lt;br&gt;&lt;/div&gt;&lt;div&gt;&lt;span style=&quot;background-color: initial;&quot;&gt;+ email: String&lt;/span&gt;&lt;/div&gt;&lt;div&gt;&lt;div&gt;+ isAdmin: Boolean&lt;/div&gt;&lt;/div&gt;&lt;div&gt;- password: String&lt;/div&gt;&lt;div&gt;&lt;span style=&quot;background-color: initial;&quot;&gt;+ favorites: List&amp;lt;String&amp;gt;&lt;/span&gt;&lt;/div&gt;&lt;div&gt;&lt;div&gt;+ cart: List&amp;lt;String&amp;gt;&lt;/div&gt;&lt;/div&gt;&lt;div&gt;&lt;div&gt;&lt;span style=&quot;background-color: initial;&quot;&gt;+ createdAt: Date&lt;/span&gt;&lt;/div&gt;&lt;/div&gt;&lt;div&gt;&lt;br&gt;&lt;/div&gt;&lt;div&gt;&lt;br&gt;&lt;/div&gt;" style="text;strokeColor=none;fillColor=none;align=left;verticalAlign=top;spacingLeft=4;spacingRight=4;overflow=hidden;rotatable=0;points=[[0,0.5],[1,0.5]];portConstraint=eastwest;whiteSpace=wrap;html=1;" parent="9vjaQ01O8-c-7YoNoBC--1" vertex="1">
          <mxGeometry y="26" width="430" height="134" as="geometry" />
        </mxCell>
        <mxCell id="9vjaQ01O8-c-7YoNoBC--3" value="" style="line;strokeWidth=1;fillColor=none;align=left;verticalAlign=middle;spacingTop=-1;spacingLeft=3;spacingRight=3;rotatable=0;labelPosition=right;points=[];portConstraint=eastwest;strokeColor=inherit;" parent="9vjaQ01O8-c-7YoNoBC--1" vertex="1">
          <mxGeometry y="160" width="430" height="8" as="geometry" />
        </mxCell>
        <mxCell id="9vjaQ01O8-c-7YoNoBC--4" value="&lt;p data-pm-slice=&quot;0 0 []&quot;&gt;+ login(email: String, password: String): Boolean&lt;/p&gt;&lt;p data-pm-slice=&quot;0 0 []&quot;&gt;+ loginWithGoogle(idToken: String): Boolean&lt;/p&gt;&lt;p data-pm-slice=&quot;0 0 []&quot;&gt;+ register(email: String, password: String): Boolean&lt;/p&gt;&lt;p data-pm-slice=&quot;0 0 []&quot;&gt;+ getFavorites(email): List&amp;nbsp;&lt;/p&gt;&lt;p data-pm-slice=&quot;0 0 []&quot;&gt;+toggleFavorite(email:string,productid:string)&lt;/p&gt;&lt;p data-pm-slice=&quot;0 0 []&quot;&gt;&lt;span style=&quot;background-color: initial;&quot;&gt;+ getUserCart(email: String): Promise&amp;lt;Array&amp;gt;&lt;/span&gt;&lt;/p&gt;&lt;p data-pm-slice=&quot;0 0 []&quot;&gt;&lt;span style=&quot;background-color: initial;&quot;&gt;+ toggleProductInCart(cart: Array, productId: String, quantity: Number): Array&lt;/span&gt;&lt;/p&gt;&lt;div&gt;&lt;p data-pm-slice=&quot;0 0 []&quot;&gt;&lt;span style=&quot;background-color: initial;&quot;&gt;+ removeProductFromCart(cart: Array, productId: String): Array&lt;/span&gt;&lt;/p&gt;&lt;/div&gt;&lt;p data-pm-slice=&quot;0 0 []&quot;&gt;&lt;span style=&quot;background-color: initial;&quot;&gt;+ updateCart(userDoc: Document, cart: Array): Promise&amp;lt;void&amp;gt;&lt;/span&gt;&lt;/p&gt;" style="text;strokeColor=none;fillColor=none;align=left;verticalAlign=top;spacingLeft=4;spacingRight=4;overflow=hidden;rotatable=0;points=[[0,0.5],[1,0.5]];portConstraint=eastwest;whiteSpace=wrap;html=1;" parent="9vjaQ01O8-c-7YoNoBC--1" vertex="1">
          <mxGeometry y="168" width="430" height="272" as="geometry" />
        </mxCell>
        <mxCell id="9vjaQ01O8-c-7YoNoBC--28" style="edgeStyle=orthogonalEdgeStyle;rounded=0;orthogonalLoop=1;jettySize=auto;html=1;entryX=0.5;entryY=0;entryDx=0;entryDy=0;strokeColor=default;startArrow=none;startFill=0;endArrow=none;endFill=0;" parent="1" source="9vjaQ01O8-c-7YoNoBC--11" target="9vjaQ01O8-c-7YoNoBC--15" edge="1">
          <mxGeometry relative="1" as="geometry" />
        </mxCell>
        <mxCell id="9vjaQ01O8-c-7YoNoBC--11" value="&lt;span style=&quot;font-weight: 400; text-align: left;&quot;&gt;Category&lt;/span&gt;" style="swimlane;fontStyle=1;align=center;verticalAlign=top;childLayout=stackLayout;horizontal=1;startSize=26;horizontalStack=0;resizeParent=1;resizeParentMax=0;resizeLast=0;collapsible=1;marginBottom=0;whiteSpace=wrap;html=1;" parent="1" vertex="1">
          <mxGeometry x="520" y="130" width="200" height="176" as="geometry" />
        </mxCell>
        <mxCell id="9vjaQ01O8-c-7YoNoBC--12" value="&lt;div&gt;&lt;span style=&quot;background-color: initial;&quot;&gt;- id: String&lt;/span&gt;&lt;/div&gt;&lt;div&gt;- name: String&lt;/div&gt;&lt;div&gt;- description: String&lt;/div&gt;&lt;div&gt;- icon: String&lt;/div&gt;" style="text;strokeColor=none;fillColor=none;align=left;verticalAlign=top;spacingLeft=4;spacingRight=4;overflow=hidden;rotatable=0;points=[[0,0.5],[1,0.5]];portConstraint=eastwest;whiteSpace=wrap;html=1;" parent="9vjaQ01O8-c-7YoNoBC--11" vertex="1">
          <mxGeometry y="26" width="200" height="84" as="geometry" />
        </mxCell>
        <mxCell id="9vjaQ01O8-c-7YoNoBC--13" value="" style="line;strokeWidth=1;fillColor=none;align=left;verticalAlign=middle;spacingTop=-1;spacingLeft=3;spacingRight=3;rotatable=0;labelPosition=right;points=[];portConstraint=eastwest;strokeColor=inherit;" parent="9vjaQ01O8-c-7YoNoBC--11" vertex="1">
          <mxGeometry y="110" width="200" height="8" as="geometry" />
        </mxCell>
        <mxCell id="9vjaQ01O8-c-7YoNoBC--14" value="&lt;div&gt;+ fetchAll(): Array&amp;lt;Category&amp;gt;&lt;/div&gt;&lt;div&gt;&lt;br&gt;&lt;/div&gt;" style="text;strokeColor=none;fillColor=none;align=left;verticalAlign=top;spacingLeft=4;spacingRight=4;overflow=hidden;rotatable=0;points=[[0,0.5],[1,0.5]];portConstraint=eastwest;whiteSpace=wrap;html=1;" parent="9vjaQ01O8-c-7YoNoBC--11" vertex="1">
          <mxGeometry y="118" width="200" height="58" as="geometry" />
        </mxCell>
        <mxCell id="9vjaQ01O8-c-7YoNoBC--15" value="Product" style="swimlane;fontStyle=1;align=center;verticalAlign=top;childLayout=stackLayout;horizontal=1;startSize=26;horizontalStack=0;resizeParent=1;resizeParentMax=0;resizeLast=0;collapsible=1;marginBottom=0;whiteSpace=wrap;html=1;" parent="1" vertex="1">
          <mxGeometry x="510" y="490" width="240" height="260" as="geometry" />
        </mxCell>
        <mxCell id="9vjaQ01O8-c-7YoNoBC--16" value="- id: String&lt;br/&gt;- name: String&lt;br/&gt;- price: Float&lt;br/&gt;- location: String&lt;br/&gt;- stock: Integer&lt;br/&gt;- category: String&lt;br/&gt;- imageUrl: String&lt;br/&gt;- username: String" style="text;strokeColor=none;fillColor=none;align=left;verticalAlign=top;spacingLeft=4;spacingRight=4;overflow=hidden;rotatable=0;points=[[0,0.5],[1,0.5]];portConstraint=eastwest;whiteSpace=wrap;html=1;" parent="9vjaQ01O8-c-7YoNoBC--15" vertex="1">
          <mxGeometry y="26" width="240" height="134" as="geometry" />
        </mxCell>
        <mxCell id="9vjaQ01O8-c-7YoNoBC--17" value="" style="line;strokeWidth=1;fillColor=none;align=left;verticalAlign=middle;spacingTop=-1;spacingLeft=3;spacingRight=3;rotatable=0;labelPosition=right;points=[];portConstraint=eastwest;strokeColor=inherit;" parent="9vjaQ01O8-c-7YoNoBC--15" vertex="1">
          <mxGeometry y="160" width="240" height="8" as="geometry" />
        </mxCell>
        <mxCell id="9vjaQ01O8-c-7YoNoBC--18" value="+ uploadImage(image: File): String&lt;br/&gt;+ createProduct(data: Object): Product&lt;br/&gt;+ fetchAll(): Array&amp;lt;Product&amp;gt;&lt;br/&gt;+ fetchById(productId: String): Product" style="text;strokeColor=none;fillColor=none;align=left;verticalAlign=top;spacingLeft=4;spacingRight=4;overflow=hidden;rotatable=0;points=[[0,0.5],[1,0.5]];portConstraint=eastwest;whiteSpace=wrap;html=1;" parent="9vjaQ01O8-c-7YoNoBC--15" vertex="1">
          <mxGeometry y="168" width="240" height="92" as="geometry" />
        </mxCell>
        <mxCell id="9vjaQ01O8-c-7YoNoBC--20" value="O&lt;span style=&quot;background-color: initial;&quot;&gt;rder&lt;/span&gt;&lt;div&gt;&lt;div&gt;&lt;br&gt;&lt;/div&gt;&lt;/div&gt;" style="swimlane;fontStyle=1;align=center;verticalAlign=top;childLayout=stackLayout;horizontal=1;startSize=26;horizontalStack=0;resizeParent=1;resizeParentMax=0;resizeLast=0;collapsible=1;marginBottom=0;whiteSpace=wrap;html=1;" parent="1" vertex="1">
          <mxGeometry x="30" y="680" width="250" height="230" as="geometry" />
        </mxCell>
        <mxCell id="9vjaQ01O8-c-7YoNoBC--21" value="- orderId: String&lt;br&gt;- cartItems: Array&amp;lt;product&amp;gt;&lt;br&gt;- username: String&lt;br&gt;- email: String&lt;br&gt;- totalAmount: Float&lt;br&gt;- orderDate: Date&lt;br&gt;- paymentOption: String&lt;br&gt;- address: String&lt;br&gt;- cardDetails: Array&amp;lt;String&amp;gt;" style="text;strokeColor=none;fillColor=none;align=left;verticalAlign=top;spacingLeft=4;spacingRight=4;overflow=hidden;rotatable=0;points=[[0,0.5],[1,0.5]];portConstraint=eastwest;whiteSpace=wrap;html=1;" parent="9vjaQ01O8-c-7YoNoBC--20" vertex="1">
          <mxGeometry y="26" width="250" height="144" as="geometry" />
        </mxCell>
        <mxCell id="9vjaQ01O8-c-7YoNoBC--22" value="" style="line;strokeWidth=1;fillColor=none;align=left;verticalAlign=middle;spacingTop=-1;spacingLeft=3;spacingRight=3;rotatable=0;labelPosition=right;points=[];portConstraint=eastwest;strokeColor=inherit;" parent="9vjaQ01O8-c-7YoNoBC--20" vertex="1">
          <mxGeometry y="170" width="250" height="8" as="geometry" />
        </mxCell>
        <mxCell id="9vjaQ01O8-c-7YoNoBC--23" value="&lt;pre class=&quot;!overflow-visible&quot;&gt;&lt;div class=&quot;contain-inline-size rounded-md border-[0.5px] border-token-border-medium relative bg-token-sidebar-surface-primary dark:bg-gray-950&quot;&gt;&lt;div dir=&quot;ltr&quot; class=&quot;overflow-y-auto p-4&quot;&gt;&lt;code class=&quot;!whitespace-pre hljs language-plaintext&quot;&gt;+ addOrder(order: Object): String&lt;br/&gt;&lt;/code&gt;&lt;/div&gt;&lt;/div&gt;&lt;/pre&gt;&lt;h3&gt;&lt;/h3&gt;" style="text;strokeColor=none;fillColor=none;align=left;verticalAlign=top;spacingLeft=4;spacingRight=4;overflow=hidden;rotatable=0;points=[[0,0.5],[1,0.5]];portConstraint=eastwest;whiteSpace=wrap;html=1;" parent="9vjaQ01O8-c-7YoNoBC--20" vertex="1">
          <mxGeometry y="178" width="250" height="52" as="geometry" />
        </mxCell>
        <mxCell id="9vjaQ01O8-c-7YoNoBC--29" value="*" style="text;html=1;align=center;verticalAlign=middle;resizable=0;points=[];autosize=1;strokeColor=none;fillColor=none;" parent="1" vertex="1">
          <mxGeometry x="630" y="460" width="30" height="30" as="geometry" />
        </mxCell>
        <mxCell id="9vjaQ01O8-c-7YoNoBC--30" value="1" style="text;html=1;align=center;verticalAlign=middle;resizable=0;points=[];autosize=1;strokeColor=none;fillColor=none;" parent="1" vertex="1">
          <mxGeometry x="615" y="310" width="30" height="30" as="geometry" />
        </mxCell>
        <mxCell id="9vjaQ01O8-c-7YoNoBC--32" style="edgeStyle=orthogonalEdgeStyle;rounded=0;orthogonalLoop=1;jettySize=auto;html=1;entryX=0;entryY=0;entryDx=0;entryDy=0;endArrow=none;endFill=0;" parent="1" source="9vjaQ01O8-c-7YoNoBC--4" target="9vjaQ01O8-c-7YoNoBC--15" edge="1">
          <mxGeometry relative="1" as="geometry">
            <mxPoint x="359.99999999999955" y="448.9999999999998" as="targetPoint" />
          </mxGeometry>
        </mxCell>
        <mxCell id="9vjaQ01O8-c-7YoNoBC--33" style="edgeStyle=orthogonalEdgeStyle;rounded=0;orthogonalLoop=1;jettySize=auto;html=1;entryX=-0.011;entryY=0.633;entryDx=0;entryDy=0;entryPerimeter=0;endArrow=none;endFill=0;" parent="1" source="9vjaQ01O8-c-7YoNoBC--4" target="9vjaQ01O8-c-7YoNoBC--16" edge="1">
          <mxGeometry relative="1" as="geometry">
            <Array as="points">
              <mxPoint x="425" y="500" />
              <mxPoint x="425" y="601" />
            </Array>
          </mxGeometry>
        </mxCell>
        <mxCell id="9vjaQ01O8-c-7YoNoBC--34" value="*" style="text;html=1;align=center;verticalAlign=middle;resizable=0;points=[];autosize=1;strokeColor=none;fillColor=none;" parent="1" vertex="1">
          <mxGeometry x="510" y="460" width="30" height="30" as="geometry" />
        </mxCell>
        <mxCell id="9vjaQ01O8-c-7YoNoBC--35" value="*" style="text;html=1;align=center;verticalAlign=middle;resizable=0;points=[];autosize=1;strokeColor=none;fillColor=none;" parent="1" vertex="1">
          <mxGeometry x="380" y="360" width="30" height="30" as="geometry" />
        </mxCell>
        <mxCell id="9vjaQ01O8-c-7YoNoBC--36" value="*" style="text;html=1;align=center;verticalAlign=middle;resizable=0;points=[];autosize=1;strokeColor=none;fillColor=none;" parent="1" vertex="1">
          <mxGeometry x="480" y="570" width="30" height="30" as="geometry" />
        </mxCell>
        <mxCell id="9vjaQ01O8-c-7YoNoBC--37" value="*" style="text;html=1;align=center;verticalAlign=middle;resizable=0;points=[];autosize=1;strokeColor=none;fillColor=none;" parent="1" vertex="1">
          <mxGeometry x="380" y="470" width="30" height="30" as="geometry" />
        </mxCell>
        <mxCell id="9vjaQ01O8-c-7YoNoBC--40" value="*" style="text;html=1;align=center;verticalAlign=middle;resizable=0;points=[];autosize=1;strokeColor=none;fillColor=none;" parent="1" vertex="1">
          <mxGeometry x="160" y="650" width="30" height="30" as="geometry" />
        </mxCell>
        <mxCell id="9vjaQ01O8-c-7YoNoBC--41" value="1" style="text;html=1;align=center;verticalAlign=middle;resizable=0;points=[];autosize=1;strokeColor=none;fillColor=none;" parent="1" vertex="1">
          <mxGeometry x="-80" y="370" width="30" height="30" as="geometry" />
        </mxCell>
        <mxCell id="9vjaQ01O8-c-7YoNoBC--42" style="edgeStyle=orthogonalEdgeStyle;rounded=0;orthogonalLoop=1;jettySize=auto;html=1;entryX=0.5;entryY=0;entryDx=0;entryDy=0;endArrow=none;endFill=0;" parent="1" source="9vjaQ01O8-c-7YoNoBC--4" target="9vjaQ01O8-c-7YoNoBC--20" edge="1">
          <mxGeometry relative="1" as="geometry" />
        </mxCell>
        <mxCell id="9vjaQ01O8-c-7YoNoBC--43" style="edgeStyle=orthogonalEdgeStyle;rounded=0;orthogonalLoop=1;jettySize=auto;html=1;entryX=-0.016;entryY=0.725;entryDx=0;entryDy=0;entryPerimeter=0;endArrow=none;endFill=0;" parent="1" source="9vjaQ01O8-c-7YoNoBC--21" target="9vjaQ01O8-c-7YoNoBC--18" edge="1">
          <mxGeometry relative="1" as="geometry" />
        </mxCell>
        <mxCell id="9vjaQ01O8-c-7YoNoBC--44" value="*" style="text;html=1;align=center;verticalAlign=middle;resizable=0;points=[];autosize=1;strokeColor=none;fillColor=none;" parent="1" vertex="1">
          <mxGeometry x="480" y="720" width="30" height="30" as="geometry" />
        </mxCell>
        <mxCell id="9vjaQ01O8-c-7YoNoBC--45" value="*" style="text;html=1;align=center;verticalAlign=middle;resizable=0;points=[];autosize=1;strokeColor=none;fillColor=none;" parent="1" vertex="1">
          <mxGeometry x="280" y="750" width="30" height="30" as="geometry" />
        </mxCell>
      </root>
    </mxGraphModel>
  </diagram>
</mxfile>
